<svg width="10" height="6" viewBox="0 0 10 6" fill="none" xmlns="http://www.w3.org/2000/svg">
<path d="M5.47305 3.93334C5.41108 3.99583 5.33734 4.04543 5.2561 4.07927C5.17486 4.11312 5.08773 4.13054 4.99972 4.13054C4.91171 4.13054 4.82457 4.11312 4.74333 4.07927C4.6621 4.04543 4.58836 3.99583 4.52639 3.93334L1.47305 0.873344C1.41107 0.810859 1.33734 0.761262 1.2561 0.727416C1.17486 0.69357 1.08772 0.676145 0.999715 0.676145C0.911707 0.676145 0.82457 0.69357 0.74333 0.727416C0.662091 0.761262 0.588357 0.810859 0.526381 0.873344C0.402214 0.998253 0.33252 1.16722 0.33252 1.34334C0.33252 1.51947 0.402214 1.68844 0.526381 1.81334L3.58638 4.87335C3.96139 5.24788 4.46972 5.45825 4.99972 5.45825C5.52972 5.45825 6.03805 5.24788 6.41305 4.87335L9.47306 1.81334C9.59622 1.68917 9.66566 1.52157 9.66639 1.34668C9.6669 1.25894 9.65008 1.17196 9.61691 1.09074C9.58373 1.00951 9.53484 0.935638 9.47306 0.873344C9.41108 0.810859 9.33735 0.761262 9.25611 0.727416C9.17487 0.69357 9.08773 0.676145 8.99972 0.676145C8.91172 0.676145 8.82458 0.69357 8.74334 0.727416C8.6621 0.761262 8.58837 0.810859 8.52639 0.873344L5.47305 3.93334Z" fill="#FD9222"/>
</svg>
